<svg version="1.1" id="Layer_1" xmlns="http://www.w3.org/2000/svg" xmlns:xlink="http://www.w3.org/1999/xlink" x="0px" y="0px"
	 width="100%" viewBox="0 0 492 507" enable-background="new 0 0 492 507" xml:space="preserve">
<path fill="#000000" opacity="0.000000" stroke="none" 
	d="
M292.000000,508.000000 
	C194.666687,508.000000 97.833382,508.000000 1.000052,508.000000 
	C1.000035,339.000061 1.000035,170.000122 1.000017,1.000143 
	C164.999893,1.000095 328.999786,1.000095 492.999756,1.000048 
	C492.999847,169.999863 492.999847,338.999725 492.999939,507.999786 
	C426.166656,508.000000 359.333344,508.000000 292.000000,508.000000 
M154.312088,262.675690 
	C154.312088,262.675690 154.402496,262.646942 154.245850,262.147034 
	C153.967117,261.951996 153.688385,261.756958 153.018021,261.987793 
	C153.151321,261.848328 153.284607,261.708862 153.221252,261.106964 
	C152.948196,260.923676 152.675125,260.740417 152.209732,260.764069 
	C152.209732,260.764069 152.436539,260.595612 152.171341,260.083405 
	C151.838989,259.918610 151.506638,259.753815 150.501389,259.128754 
	C142.698944,257.652710 136.851212,261.582428 131.177628,266.067810 
	C115.410370,278.533051 99.567566,290.903442 83.863525,303.447693 
	C72.723442,312.346313 61.608501,321.289337 50.784821,330.565491 
	C45.668777,334.950073 45.767727,340.378204 50.239761,345.381195 
	C51.893921,347.231720 53.758518,348.930573 55.701283,350.480255 
	C63.510696,356.709656 71.382141,362.861450 79.241920,369.027588 
	C99.258842,384.731201 119.195900,400.539581 139.413345,415.980774 
	C141.883026,417.867035 146.093124,418.940979 149.112518,418.367767 
	C158.406082,416.603546 163.469803,401.663483 156.685364,395.203217 
	C148.270462,387.190430 138.828629,380.241608 129.699982,372.997528 
	C122.134377,366.993805 114.372917,361.237152 106.710701,355.354797 
	C99.383163,349.729401 92.071739,344.083038 84.598579,338.326752 
	C96.072777,329.365967 107.482292,320.560547 118.773300,311.605682 
	C128.261307,304.080750 137.611298,296.381805 147.642731,288.572815 
	C149.817398,286.747101 151.992081,284.921387 154.088791,283.088593 
	C154.088791,283.088593 154.088409,283.166840 154.742645,283.048309 
	C155.541336,282.055969 156.340027,281.063599 157.054718,280.062164 
	C157.054718,280.062164 157.050110,280.146545 157.577820,279.972382 
	C157.729736,279.647125 157.881638,279.321869 157.992386,278.994110 
	C157.992386,278.994110 158.011536,279.030579 158.652649,278.637848 
	C161.113220,272.869690 159.487015,267.984802 155.108658,263.663635 
	C155.108658,263.663635 155.404724,263.648987 155.223129,263.144012 
	C154.927948,262.957428 154.632767,262.770874 154.312088,262.675690 
M240.968445,225.115326 
	C241.103043,224.765991 241.237656,224.416656 241.845825,223.621353 
	C246.528915,218.089905 250.559616,211.788483 256.013855,207.167175 
	C274.525482,191.482513 296.480225,187.791473 319.882996,190.904312 
	C332.304535,192.556519 344.643768,194.827728 357.863037,197.138245 
	C371.219086,197.037781 384.575165,196.937332 398.781616,196.831039 
	C408.718323,195.439743 418.487366,193.499268 427.092865,188.134491 
	C427.092865,188.134491 427.085510,188.258392 427.787811,188.103287 
	C430.259949,186.445297 432.732086,184.787323 435.084442,183.106110 
	C435.084442,183.106110 435.068359,183.227051 435.634247,183.052811 
	C435.838806,182.726166 436.043365,182.399506 436.113190,182.082932 
	C436.113190,182.082932 436.130768,182.216873 436.731445,181.995956 
	C437.560760,181.041550 438.390076,180.087128 439.100433,179.116104 
	C439.100433,179.116104 439.092010,179.235886 439.654449,179.050369 
	C439.829437,178.715469 440.004425,178.380554 440.080627,178.071121 
	C440.080627,178.071121 440.111450,178.168381 440.691437,177.717026 
	C444.751190,169.908829 444.005035,165.185593 438.061340,160.968277 
	C438.061340,160.968277 438.111328,160.920563 437.690582,160.385300 
	C435.220215,159.523788 432.809143,158.222580 430.268799,157.880249 
	C421.362152,156.680008 412.414185,155.779495 403.475189,154.828644 
	C399.523163,154.408264 395.554901,154.139999 391.040161,153.045364 
	C385.095245,150.726791 379.083740,148.564209 373.218475,146.059158 
	C358.173950,139.633636 348.072876,128.480347 341.901245,113.407440 
	C338.994781,106.309036 335.373077,99.503487 332.278320,92.020607 
	C331.528809,90.657211 330.779266,89.293823 330.006958,87.992241 
	C330.006958,87.992241 330.072144,88.001709 329.981689,87.295486 
	C328.323578,84.812721 326.665497,82.329956 324.905426,79.358543 
	C324.905426,79.358543 324.538055,79.020607 324.329590,78.420380 
	C321.968201,75.816635 319.606812,73.212898 317.234192,70.755180 
	C317.234192,70.755180 317.380493,70.748245 317.096436,70.113037 
	C312.419861,66.022575 307.743317,61.932117 303.077850,57.917534 
	C303.077850,57.917534 303.152618,57.900539 302.790192,57.328381 
	C299.869690,55.629204 296.949158,53.930027 293.300476,52.019527 
	C290.082153,50.546478 286.915955,48.943752 283.635406,47.625595 
	C275.067383,44.182899 266.635559,40.193798 256.219421,39.802769 
	C247.125381,39.973530 238.031326,40.144291 228.117188,40.280090 
	C222.679398,41.476345 217.144592,42.345592 211.820496,43.925072 
	C187.887527,51.025158 171.068497,67.087479 157.128952,87.799225 
	C150.978699,98.514847 146.264893,109.775940 144.011032,122.037537 
	C144.011032,122.037537 144.031982,122.161240 143.593033,122.750259 
	C142.824265,128.532547 142.055496,134.314850 141.142853,140.784653 
	C141.168045,141.485153 141.193237,142.185654 140.881454,143.677521 
	C140.724228,144.143799 140.426407,144.611130 140.429855,145.076218 
	C140.620392,170.824997 140.787796,196.574173 141.103195,222.321533 
	C141.148788,226.042877 142.840485,229.024826 147.909714,229.962006 
	C176.792160,229.977814 205.674606,230.003708 234.557007,229.974518 
	C235.777740,229.973282 236.997971,229.460480 238.114349,229.164917 
	C238.114349,229.164917 238.103897,229.270599 238.692810,229.072159 
	C238.816498,228.692551 238.940186,228.312958 239.281738,227.815399 
	C239.281738,227.815399 239.230347,227.573044 239.722504,227.162155 
	C240.019257,226.587540 240.316025,226.012924 240.499741,225.401703 
	C240.499741,225.401703 240.558044,225.505249 240.968445,225.115326 
M335.372894,261.313873 
	C335.372894,261.313873 335.339508,261.456177 334.851257,261.721100 
	C334.522064,262.152313 334.192871,262.583527 333.444183,263.142609 
	C333.208282,263.343109 333.076782,263.597565 332.393768,264.227448 
	C331.384125,266.497986 330.374451,268.768555 329.202545,271.407166 
	C329.202545,271.407166 329.327515,271.789490 329.134521,272.515045 
	C330.412659,275.697723 331.690796,278.880432 332.996796,282.006348 
	C332.996796,282.006348 332.940186,282.034485 333.155640,282.662048 
	C334.766174,283.793365 336.376709,284.924683 337.992126,285.996735 
	C337.992126,285.996735 337.937561,286.020233 338.201569,286.534210 
	C338.678864,286.852570 339.156189,287.170898 339.759460,287.266907 
	C339.759460,287.266907 339.588013,287.456421 339.879730,288.018250 
	C341.078644,288.858551 342.277527,289.698883 343.628906,290.401276 
	C343.628906,290.401276 343.522491,290.577179 343.684326,291.016266 
	C343.864868,291.300446 344.121857,291.465698 344.535492,291.448425 
	C344.535492,291.448425 344.516693,291.548981 344.853638,292.076233 
	C345.881805,292.758453 346.909973,293.440704 347.954254,294.052948 
	C347.954254,294.052948 347.883240,294.063721 348.151184,294.674530 
	C349.763489,295.801880 351.375793,296.929199 352.984741,297.997101 
	C352.984741,297.997101 352.936188,298.031586 353.388428,298.499268 
	C354.586090,299.391266 355.783752,300.283264 357.369965,301.701416 
	C372.677277,313.822876 387.984589,325.944336 404.100098,338.705780 
	C394.496368,346.004456 385.426361,352.782654 376.481232,359.721893 
	C362.240875,370.768921 347.876526,381.671783 333.972748,393.130798 
	C326.208557,399.529724 327.554047,405.693329 333.215576,412.921051 
	C339.302399,420.691772 343.664551,420.893768 351.827606,414.539459 
	C369.644257,400.670471 387.376709,386.692535 405.057953,372.651276 
	C407.881653,370.408875 410.003906,367.256714 412.896606,365.132843 
	C420.407654,359.618103 428.298615,354.619751 435.793152,349.083923 
	C444.489716,342.660217 444.428375,334.547180 435.905945,327.917908 
	C431.109894,324.187225 426.206970,320.594086 421.402527,316.873993 
	C404.351959,303.671814 387.336334,290.424408 370.278900,277.231049 
	C364.032654,272.399750 357.706726,267.671417 351.289978,262.344238 
	C350.540375,261.830017 349.790802,261.315826 349.059692,260.917999 
	C349.059692,260.917999 349.175079,260.894165 348.954742,260.385803 
	C348.503876,260.068634 348.053009,259.751465 347.545044,259.318878 
	C347.545044,259.318878 347.416931,259.331604 346.835449,258.866394 
	C343.051849,257.045654 339.636261,257.814758 336.239563,260.362335 
	C336.239563,260.362335 336.208588,260.592010 335.873596,260.707306 
	C335.661652,260.847809 335.543152,261.044556 335.372894,261.313873 
M222.652039,456.630951 
	C222.652039,456.630951 222.676010,456.516052 223.142960,456.250977 
	C223.599289,455.704254 224.055618,455.157501 224.653458,454.586243 
	C224.653458,454.586243 224.675934,454.444397 225.154434,453.987457 
	C227.069794,449.314270 228.985153,444.641083 231.337021,439.400391 
	C232.031052,437.314301 232.725098,435.228210 233.274200,433.179901 
	C233.274200,433.179901 233.328613,433.319427 233.778885,432.774872 
	C238.579483,419.523590 243.380081,406.272308 248.068634,393.050476 
	C248.068634,393.050476 248.102448,393.161285 248.672226,392.711395 
	C249.608185,389.876648 250.544144,387.041931 251.351913,384.216644 
	C251.351913,384.216644 251.383194,384.341309 251.868271,383.823608 
	C254.774017,375.526733 257.679749,367.229889 260.851898,358.226074 
	C261.436462,357.054474 262.161194,355.931213 262.584076,354.703918 
	C267.122345,341.532257 271.612915,328.344116 276.699951,314.752777 
	C280.850647,303.177704 285.001373,291.602661 289.071045,280.048767 
	C289.071045,280.048767 289.096619,280.128510 289.680969,279.711060 
	C291.329224,274.797394 292.977448,269.883728 294.927521,264.402374 
	C297.337067,258.053528 299.969360,251.778076 302.091705,245.334641 
	C304.098206,239.242966 305.745850,233.014343 307.143860,226.754959 
	C307.469513,225.296875 306.653442,222.795105 305.496613,221.924622 
	C298.788574,216.877075 286.054932,216.525909 280.574280,224.062241 
	C279.237274,226.639923 277.900269,229.217606 276.674194,231.778214 
	C276.674194,231.778214 276.636627,231.672455 276.169800,232.197113 
	C273.847687,238.782135 271.525574,245.367157 268.794861,252.434891 
	C267.836456,255.220276 266.878021,258.005676 265.604340,261.278381 
	C265.046234,263.190155 264.488129,265.101929 263.996124,266.996460 
	C263.996124,266.996460 263.973297,266.932068 263.398834,267.313721 
	C262.731415,269.052887 262.064026,270.792084 261.364441,272.594116 
	C261.364441,272.594116 261.406494,272.650879 261.054901,273.258728 
	C258.032196,281.828003 255.009460,290.397247 251.592621,299.556244 
	C249.685760,305.015961 247.778900,310.475647 245.945602,315.931335 
	C245.945602,315.931335 245.910721,315.866455 245.362701,316.324524 
	C240.646561,329.540436 235.930420,342.756348 230.857681,356.459137 
	C229.884903,359.022797 228.881424,361.575287 227.944061,364.151825 
	C218.173920,391.007202 208.426971,417.870972 198.644272,444.721741 
	C195.714981,452.761841 198.452438,457.701019 207.901016,460.186890 
	C212.084869,459.665558 216.268723,459.144226 220.571960,458.606873 
	C220.571960,458.606873 220.600601,458.489899 221.068954,458.215393 
	C221.558411,457.695496 222.047867,457.175568 222.652039,456.630951 
z"/>
<path fill="#FEBF2A" opacity="1.000000" stroke="none" 
	d="
M157.721970,87.416374 
	C171.068497,67.087479 187.887527,51.025158 211.820496,43.925072 
	C217.144592,42.345592 222.679398,41.476345 228.899979,40.488174 
	C238.819427,40.540421 247.956085,40.384586 257.092743,40.228752 
	C266.635559,40.193798 275.067383,44.182899 283.635406,47.625595 
	C286.915955,48.943752 290.082153,50.546478 293.742126,52.447102 
	C297.173370,54.549961 300.162994,56.225250 303.152618,57.900539 
	C303.152618,57.900539 303.077850,57.917534 303.125061,58.218109 
	C307.908325,62.595207 312.644409,66.671722 317.380493,70.748245 
	C317.380493,70.748245 317.234192,70.755180 317.294006,71.038116 
	C319.748596,73.887573 322.143311,76.454094 324.538055,79.020615 
	C324.538055,79.020607 324.905426,79.358543 324.959351,79.981018 
	C326.699554,83.069557 328.385834,85.535637 330.072144,88.001709 
	C330.072144,88.001709 330.006958,87.992241 330.010529,88.282425 
	C330.701233,89.903488 331.388336,91.234360 332.075439,92.565239 
	C335.373077,99.503487 338.994781,106.309036 341.901245,113.407440 
	C348.072876,128.480347 358.173950,139.633636 373.218475,146.059158 
	C379.083740,148.564209 385.095245,150.726791 391.562836,153.522064 
	C407.427460,156.306030 422.769379,158.613297 438.111328,160.920563 
	C438.111328,160.920563 438.061340,160.968277 438.097595,161.294159 
	C440.867432,166.198792 443.601501,170.760223 440.131622,176.220261 
	C439.835724,176.685867 440.104828,177.510529 440.111450,178.168381 
	C440.111450,178.168381 440.080627,178.071121 439.890961,178.198608 
	C439.498199,178.629349 439.295105,178.932617 439.092010,179.235870 
	C439.092010,179.235886 439.100433,179.116104 438.806396,179.151367 
	C437.718475,180.196701 436.924622,181.206787 436.130768,182.216873 
	C436.130768,182.216873 436.113190,182.082932 435.929077,182.209595 
	C435.519440,182.633179 435.293915,182.930115 435.068359,183.227051 
	C435.068359,183.227051 435.084442,183.106110 434.778992,183.126892 
	C432.010864,184.851242 429.548187,186.554810 427.085510,188.258392 
	C427.085510,188.258392 427.092865,188.134491 426.753601,188.115631 
	C416.896210,190.777130 407.378052,193.457520 397.405457,196.110443 
	C387.066376,196.086395 377.181152,196.029053 367.297516,196.126389 
	C363.869751,196.160141 360.445831,196.577393 357.020142,196.819504 
	C344.643768,194.827728 332.304535,192.556519 319.882996,190.904312 
	C296.480225,187.791473 274.525482,191.482513 256.013855,207.167175 
	C250.559616,211.788483 246.528915,218.089905 241.379089,224.022400 
	C240.794235,224.784042 240.676132,225.144653 240.558044,225.505249 
	C240.558044,225.505249 240.499741,225.401703 240.233261,225.559891 
	C239.721298,226.336395 239.475815,226.954712 239.230347,227.573044 
	C239.230347,227.573044 239.281738,227.815399 238.938507,228.037674 
	C238.431488,228.596832 238.267685,228.933716 238.103882,229.270599 
	C238.103897,229.270599 238.114349,229.164917 237.687408,229.092407 
	C208.498001,228.979355 179.735535,228.938812 150.869003,228.809570 
	C150.488510,228.604797 150.245422,228.660110 149.654434,228.884766 
	C148.509811,228.874084 147.746429,228.865433 146.717682,228.652008 
	C145.016830,225.450928 142.387451,222.475464 142.334808,219.455063 
	C141.915451,195.392487 141.996429,171.321320 141.875534,147.253036 
	C141.868195,145.796356 141.447052,144.341736 141.218445,142.886154 
	C141.193237,142.185654 141.168045,141.485153 141.525482,140.247360 
	C142.616074,133.860458 143.324036,128.010849 144.031982,122.161240 
	C144.031982,122.161240 144.011032,122.037537 144.360428,121.823006 
	C147.181702,114.785782 149.586639,107.937828 152.148743,101.149185 
	C153.892593,96.528603 155.856476,91.991051 157.721970,87.416374 
M267.406036,134.294785 
	C267.735260,134.444397 268.064453,134.594025 268.895111,135.255127 
	C274.177124,138.787186 280.110107,139.222488 285.056152,135.798157 
	C291.698853,131.199158 296.304352,124.803886 295.015198,115.072929 
	C294.286255,113.406013 293.557281,111.739098 292.910736,110.080353 
	C292.910736,110.080353 292.896118,110.161827 292.944092,109.449860 
	C292.253143,108.650055 291.562164,107.850258 290.943542,107.040527 
	C290.943542,107.040527 290.949890,107.113243 290.885376,106.424332 
	C289.900970,105.625687 288.916565,104.827042 287.989105,104.003235 
	C287.989105,104.003235 287.985626,104.065384 287.810150,103.385262 
	C286.801025,102.981430 285.791931,102.577599 284.883453,102.157829 
	C284.883453,102.157829 284.888947,102.259575 284.544037,101.544708 
	C279.309387,101.406258 274.069550,101.107918 268.844788,101.276054 
	C267.899078,101.306496 267.014954,103.250290 265.910065,104.684113 
	C265.681549,104.863449 265.422180,104.958923 264.494537,105.129845 
	C264.029938,105.801231 263.565369,106.472626 263.051941,107.081734 
	C263.051941,107.081734 263.131104,107.080803 262.675598,107.361214 
	C262.504852,107.669777 262.334106,107.978340 262.168365,108.178001 
	C262.168365,108.178001 262.275879,108.196022 261.545166,108.303337 
	C261.078430,109.601547 260.611664,110.899765 260.117676,112.115173 
	C260.117676,112.115173 260.202759,112.096146 259.442139,112.306168 
	C259.336304,116.830254 258.468445,121.521423 259.410095,125.815834 
	C259.976257,128.397842 263.362610,130.361450 265.353210,132.627121 
	C265.353210,132.627121 265.356476,132.496521 265.560638,133.087875 
	C266.095917,133.351105 266.631165,133.614334 267.101318,133.915024 
	C267.101318,133.915024 267.088379,133.841019 267.406036,134.294785 
z"/>
<path fill="#FBC02B" opacity="1.000000" stroke="none" 
	d="
M280.908936,223.551620 
	C286.054932,216.525909 298.788574,216.877075 305.496613,221.924622 
	C306.653442,222.795105 307.469513,225.296875 307.143860,226.754959 
	C305.745850,233.014343 304.098206,239.242966 302.091705,245.334641 
	C299.969360,251.778076 297.337067,258.053528 294.483337,264.830811 
	C292.391663,270.215668 290.744141,275.172089 289.096619,280.128510 
	C289.096619,280.128510 289.071045,280.048767 288.797821,280.211578 
	C287.233765,283.189728 285.692566,285.919769 284.699036,288.836365 
	C281.723328,297.571960 278.961731,306.380463 276.116577,315.160522 
	C271.612915,328.344116 267.122345,341.532257 262.584076,354.703918 
	C262.161194,355.931213 261.436462,357.054474 260.427948,358.735413 
	C257.130402,367.610260 254.256805,375.975800 251.383209,384.341309 
	C251.383194,384.341309 251.351913,384.216644 251.080322,384.371582 
	C249.906647,387.404755 249.004547,390.283020 248.102448,393.161285 
	C248.102448,393.161285 248.068634,393.050476 247.836166,393.243683 
	C247.078278,394.275635 246.396118,395.054810 246.051254,395.962219 
	C241.819382,407.097351 237.601822,418.238342 233.494049,429.419525 
	C233.066696,430.582764 233.366302,432.013031 233.328613,433.319427 
	C233.328613,433.319427 233.274200,433.179901 233.030624,433.331116 
	C231.866013,435.646362 230.944977,437.810394 229.781723,440.230713 
	C227.918320,445.139465 226.297119,449.791931 224.675934,454.444397 
	C224.675934,454.444397 224.653458,454.586243 224.261017,454.597412 
	C223.471039,455.244385 223.073517,455.880219 222.675995,456.516052 
	C222.676010,456.516052 222.652039,456.630951 222.273285,456.624969 
	C221.463211,457.242645 221.031906,457.866272 220.600616,458.489899 
	C220.600601,458.489899 220.571960,458.606873 220.113541,458.492584 
	C216.129379,458.392609 212.600296,458.331696 209.080917,458.488800 
	C208.427353,458.517975 207.812973,459.425140 207.180511,459.927124 
	C198.452438,457.701019 195.714981,452.761841 198.644272,444.721741 
	C208.426971,417.870972 218.173920,391.007202 227.944061,364.151825 
	C228.881424,361.575287 229.884903,359.022797 231.349213,356.099304 
	C233.990097,350.601166 236.413284,345.557281 238.225220,340.302673 
	C241.007751,332.233368 243.370071,324.019165 245.910706,315.866455 
	C245.910721,315.866455 245.945602,315.931335 246.250214,315.837341 
	C248.431870,310.539154 250.308945,305.334900 252.451126,299.896362 
	C255.229095,293.034454 257.854004,286.446014 260.191925,279.757324 
	C260.973816,277.520294 261.022614,275.027008 261.406494,272.650879 
	C261.406494,272.650879 261.364441,272.594116 261.736694,272.472534 
	C262.730408,270.544647 263.351837,268.738342 263.973297,266.932068 
	C263.973297,266.932068 263.996124,266.996460 264.231812,266.779846 
	C264.951508,264.639191 265.435547,262.715118 265.919586,260.791046 
	C266.878021,258.005676 267.836456,255.220276 269.320251,252.087570 
	C272.109283,245.050980 274.372955,238.361710 276.636627,231.672455 
	C276.636627,231.672455 276.674194,231.778214 276.934296,231.632187 
	C278.432556,228.841309 279.670746,226.196457 280.908936,223.551620 
z"/>
<path fill="#FAC02C" opacity="1.000000" stroke="none" 
	d="
M147.022400,288.759888 
	C137.611298,296.381805 128.261307,304.080750 118.773300,311.605682 
	C107.482292,320.560547 96.072777,329.365967 84.598579,338.326752 
	C92.071739,344.083038 99.383163,349.729401 106.710701,355.354797 
	C114.372917,361.237152 122.134377,366.993805 129.699982,372.997528 
	C138.828629,380.241608 148.270462,387.190430 156.685364,395.203217 
	C163.469803,401.663483 158.406082,416.603546 149.112518,418.367767 
	C146.093124,418.940979 141.883026,417.867035 139.413345,415.980774 
	C119.195900,400.539581 99.258842,384.731201 79.241920,369.027588 
	C71.382141,362.861450 63.510696,356.709656 55.701283,350.480255 
	C53.758518,348.930573 51.893921,347.231720 50.239761,345.381195 
	C45.767727,340.378204 45.668777,334.950073 50.784821,330.565491 
	C61.608501,321.289337 72.723442,312.346313 83.863525,303.447693 
	C99.567566,290.903442 115.410370,278.533051 131.177628,266.067810 
	C136.851212,261.582428 142.698944,257.652710 150.970978,259.609528 
	C151.772552,260.258759 152.104538,260.427185 152.436539,260.595612 
	C152.436539,260.595612 152.209732,260.764069 152.379761,260.911011 
	C152.839142,261.228424 153.128510,261.398926 153.417877,261.569427 
	C153.284607,261.708862 153.151321,261.848328 153.282043,262.031464 
	C153.831543,262.265747 154.117020,262.456360 154.402496,262.646942 
	C154.402496,262.646942 154.312088,262.675690 154.411758,262.885681 
	C154.809189,263.280121 155.106949,263.464569 155.404724,263.648987 
	C155.404724,263.648987 155.108658,263.663635 155.221191,264.033752 
	C156.226334,269.279449 157.118942,274.154999 158.011536,279.030579 
	C158.011536,279.030579 157.992386,278.994110 157.790787,279.131317 
	C157.409485,279.561188 157.229797,279.853851 157.050110,280.146545 
	C157.050110,280.146545 157.054718,280.062164 156.754303,280.116241 
	C155.665405,281.169159 154.876907,282.167999 154.088409,283.166840 
	C154.088409,283.166840 154.088791,283.088593 153.774673,283.125916 
	C151.314499,285.028778 149.168457,286.894348 147.022400,288.759888 
z"/>
<path fill="#FAC02C" opacity="1.000000" stroke="none" 
	d="
M351.417145,262.896118 
	C357.706726,267.671417 364.032654,272.399750 370.278900,277.231049 
	C387.336334,290.424408 404.351959,303.671814 421.402527,316.873993 
	C426.206970,320.594086 431.109894,324.187225 435.905945,327.917908 
	C444.428375,334.547180 444.489716,342.660217 435.793152,349.083923 
	C428.298615,354.619751 420.407654,359.618103 412.896606,365.132843 
	C410.003906,367.256714 407.881653,370.408875 405.057953,372.651276 
	C387.376709,386.692535 369.644257,400.670471 351.827606,414.539459 
	C343.664551,420.893768 339.302399,420.691772 333.215576,412.921051 
	C327.554047,405.693329 326.208557,399.529724 333.972748,393.130798 
	C347.876526,381.671783 362.240875,370.768921 376.481232,359.721893 
	C385.426361,352.782654 394.496368,346.004456 404.100098,338.705780 
	C387.984589,325.944336 372.677277,313.822876 357.047638,301.108368 
	C355.462280,299.687408 354.199219,298.859497 352.936188,298.031586 
	C352.936188,298.031586 352.984741,297.997101 352.935181,297.680878 
	C351.218140,296.264343 349.550690,295.164032 347.883240,294.063721 
	C347.883240,294.063721 347.954254,294.052948 347.881409,293.752625 
	C346.711273,292.817841 345.613983,292.183411 344.516693,291.548981 
	C344.516693,291.548981 344.535492,291.448425 344.448486,291.233704 
	C344.174622,290.695435 343.894989,290.548157 343.522491,290.577179 
	C343.522491,290.577179 343.628906,290.401276 343.539124,290.110229 
	C342.162262,289.031586 340.875122,288.243988 339.588013,287.456421 
	C339.588013,287.456421 339.759460,287.266907 339.612366,287.081726 
	C338.956055,286.604431 338.446808,286.312347 337.937561,286.020233 
	C337.937561,286.020233 337.992126,285.996735 337.931427,285.675964 
	C336.227234,284.248260 334.583710,283.141357 332.940186,282.034485 
	C332.940186,282.034485 332.996796,282.006348 332.935547,281.649933 
	C331.692017,278.125519 330.509766,274.957489 329.327515,271.789490 
	C329.327515,271.789490 329.202545,271.407166 329.618011,271.045624 
	C331.038879,268.424713 332.044281,266.165344 333.049713,263.905975 
	C333.076782,263.597565 333.208282,263.343109 333.951050,263.012207 
	C334.751770,262.406616 335.045624,261.931396 335.339508,261.456177 
	C335.339508,261.456177 335.372894,261.313873 335.645752,261.294678 
	C336.193848,261.123596 336.290527,260.895752 336.208588,260.592010 
	C336.208588,260.592010 336.239563,260.362335 336.798676,260.373596 
	C340.710846,260.033752 344.063873,259.682678 347.416931,259.331604 
	C347.416931,259.331604 347.545044,259.318878 347.621887,259.675690 
	C348.190857,260.319733 348.682983,260.606934 349.175079,260.894165 
	C349.175079,260.894165 349.059692,260.917999 349.185486,261.104980 
	C350.013214,261.826660 350.715179,262.361389 351.417145,262.896118 
z"/>
<path fill="#CFAF46" opacity="1.000000" stroke="none" 
	d="
M141.049957,143.281830 
	C141.447052,144.341736 141.868195,145.796356 141.875534,147.253036 
	C141.996429,171.321320 141.915451,195.392487 142.334808,219.455063 
	C142.387451,222.475464 145.016830,225.450928 146.720245,228.891449 
	C146.988159,229.335663 146.976288,229.812042 146.976288,229.812042 
	C142.840485,229.024826 141.148788,226.042877 141.103195,222.321533 
	C140.787796,196.574173 140.620392,170.824997 140.429855,145.076218 
	C140.426407,144.611130 140.724228,144.143799 141.049957,143.281830 
z"/>
<path fill="#D9C565" opacity="1.000000" stroke="none" 
	d="
M147.442993,229.887024 
	C146.976288,229.812042 146.988159,229.335663 146.985611,229.096222 
	C147.746429,228.865433 148.509811,228.874084 149.888229,228.899200 
	C150.503281,228.915680 150.973068,228.898254 150.973068,228.898254 
	C179.735535,228.938812 208.498001,228.979355 237.739441,229.102966 
	C236.997971,229.460480 235.777740,229.973282 234.557007,229.974518 
	C205.674606,230.003708 176.792160,229.977814 147.442993,229.887024 
z"/>
<path fill="#D8B948" opacity="1.000000" stroke="none" 
	d="
M437.900940,160.652924 
	C422.769379,158.613297 407.427460,156.306030 391.839783,153.900726 
	C395.554901,154.139999 399.523163,154.408264 403.475189,154.828644 
	C412.414185,155.779495 421.362152,156.680008 430.268799,157.880249 
	C432.809143,158.222580 435.220215,159.523788 437.900940,160.652924 
z"/>
<path fill="#DCBF49" opacity="1.000000" stroke="none" 
	d="
M245.636703,316.095490 
	C243.370071,324.019165 241.007751,332.233368 238.225220,340.302673 
	C236.413284,345.557281 233.990097,350.601166 231.527512,355.855835 
	C235.930420,342.756348 240.646561,329.540436 245.636703,316.095490 
z"/>
<path fill="#E2C44C" opacity="1.000000" stroke="none" 
	d="
M233.553757,433.047150 
	C233.366302,432.013031 233.066696,430.582764 233.494049,429.419525 
	C237.601822,418.238342 241.819382,407.097351 246.051254,395.962219 
	C246.396118,395.054810 247.078278,394.275635 247.892181,393.228943 
	C243.380081,406.272308 238.579483,419.523590 233.553757,433.047150 
z"/>
<path fill="#DFC045" opacity="1.000000" stroke="none" 
	d="
M276.408264,314.956665 
	C278.961731,306.380463 281.723328,297.571960 284.699036,288.836365 
	C285.692566,285.919769 287.233765,283.189728 288.838348,280.200989 
	C285.001373,291.602661 280.850647,303.177704 276.408264,314.956665 
z"/>
<path fill="#E2C44C" opacity="1.000000" stroke="none" 
	d="
M157.425461,87.607803 
	C155.856476,91.991051 153.892593,96.528603 152.148743,101.149185 
	C149.586639,107.937828 147.181702,114.785782 144.422409,121.813339 
	C146.264893,109.775940 150.978699,98.514847 157.425461,87.607803 
z"/>
<path fill="#F1D166" opacity="1.000000" stroke="none" 
	d="
M357.441589,196.978867 
	C360.445831,196.577393 363.869751,196.160141 367.297516,196.126389 
	C377.181152,196.029053 387.066376,196.086395 397.423553,196.284668 
	C397.896149,196.486359 397.931213,196.836853 397.931213,196.836853 
	C384.575165,196.937332 371.219086,197.037781 357.441589,196.978867 
z"/>
<path fill="#E2C44C" opacity="1.000000" stroke="none" 
	d="
M398.356415,196.833954 
	C397.931213,196.836853 397.896149,196.486359 397.878052,196.312134 
	C407.378052,193.457520 416.896210,190.777130 426.815125,188.123657 
	C418.487366,193.499268 408.718323,195.439743 398.356415,196.833954 
z"/>
<path fill="#E2C44C" opacity="1.000000" stroke="none" 
	d="
M261.230713,272.954803 
	C261.022614,275.027008 260.973816,277.520294 260.191925,279.757324 
	C257.854004,286.446014 255.229095,293.034454 252.400208,299.604736 
	C252.051697,299.353821 252.019211,299.160156 251.986740,298.966522 
	C255.009460,290.397247 258.032196,281.828003 261.230713,272.954803 
z"/>
<path fill="#E2C44C" opacity="1.000000" stroke="none" 
	d="
M251.625732,384.082458 
	C254.256805,375.975800 257.130402,367.610260 260.294739,359.088867 
	C257.679749,367.229889 254.774017,375.526733 251.625732,384.082458 
z"/>
<path fill="#DFC045" opacity="1.000000" stroke="none" 
	d="
M276.403198,231.934784 
	C274.372955,238.361710 272.109283,245.050980 269.524567,251.846222 
	C271.525574,245.367157 273.847687,238.782135 276.403198,231.934784 
z"/>
<path fill="#E2C44C" opacity="1.000000" stroke="none" 
	d="
M317.238464,70.430634 
	C312.644409,66.671722 307.908325,62.595207 303.119507,58.180172 
	C307.743317,61.932117 312.419861,66.022575 317.238464,70.430634 
z"/>
<path fill="#E2C44C" opacity="1.000000" stroke="none" 
	d="
M440.401459,177.942703 
	C440.104828,177.510529 439.835724,176.685867 440.131622,176.220261 
	C443.601501,170.760223 440.867432,166.198792 438.084656,161.262146 
	C444.005035,165.185593 444.751190,169.908829 440.401459,177.942703 
z"/>
<path fill="#DCBF49" opacity="1.000000" stroke="none" 
	d="
M251.789673,299.261383 
	C252.019211,299.160156 252.051697,299.353821 252.135101,299.839050 
	C250.308945,305.334900 248.431870,310.539154 246.213425,315.839355 
	C247.778900,310.475647 249.685760,305.015961 251.789673,299.261383 
z"/>
<path fill="#CFAF46" opacity="1.000000" stroke="none" 
	d="
M143.812515,122.455750 
	C143.324036,128.010849 142.616074,133.860458 141.597412,139.903595 
	C142.055496,134.314850 142.824265,128.532547 143.812515,122.455750 
z"/>
<path fill="#D8B948" opacity="1.000000" stroke="none" 
	d="
M158.332092,278.834229 
	C157.118942,274.154999 156.226334,269.279449 155.371429,264.016785 
	C159.487015,267.984802 161.113220,272.869690 158.332092,278.834229 
z"/>
<path fill="#F3D258" opacity="1.000000" stroke="none" 
	d="
M256.656067,40.015762 
	C247.956085,40.384586 238.819427,40.540421 229.310028,40.505653 
	C238.031326,40.144291 247.125381,39.973530 256.656067,40.015762 
z"/>
<path fill="#DFC045" opacity="1.000000" stroke="none" 
	d="
M224.915192,454.215942 
	C226.297119,449.791931 227.918320,445.139465 230.000732,440.230042 
	C230.461960,439.973083 230.900513,439.967896 230.900513,439.967896 
	C228.985153,444.641083 227.069794,449.314270 224.915192,454.215942 
z"/>
<path fill="#DFC045" opacity="1.000000" stroke="none" 
	d="
M289.388794,279.919800 
	C290.744141,275.172089 292.391663,270.215668 294.332458,265.114655 
	C292.977448,269.883728 291.329224,274.797394 289.388794,279.919800 
z"/>
<path fill="#DFC045" opacity="1.000000" stroke="none" 
	d="
M207.540771,460.057007 
	C207.812973,459.425140 208.427353,458.517975 209.080917,458.488800 
	C212.600296,458.331696 216.129379,458.392609 220.053848,458.500610 
	C216.268723,459.144226 212.084869,459.665558 207.540771,460.057007 
z"/>
<path fill="#E2C44C" opacity="1.000000" stroke="none" 
	d="
M324.433838,78.720497 
	C322.143311,76.454094 319.748596,73.887573 317.299622,70.965103 
	C319.606812,73.212898 321.968201,75.816635 324.433838,78.720497 
z"/>
<path fill="#DCBF49" opacity="1.000000" stroke="none" 
	d="
M329.231018,272.152283 
	C330.509766,274.957489 331.692017,278.125519 332.921631,281.678314 
	C331.690796,278.880432 330.412659,275.697723 329.231018,272.152283 
z"/>
<path fill="#E2C44C" opacity="1.000000" stroke="none" 
	d="
M302.971405,57.614460 
	C300.162994,56.225250 297.173370,54.549961 294.106201,52.552765 
	C296.949158,53.930027 299.869690,55.629204 302.971405,57.614460 
z"/>
<path fill="#DCBF49" opacity="1.000000" stroke="none" 
	d="
M347.126190,259.098999 
	C344.063873,259.682678 340.710846,260.033752 336.914001,260.362122 
	C339.636261,257.814758 343.051849,257.045654 347.126190,259.098999 
z"/>
<path fill="#D8B948" opacity="1.000000" stroke="none" 
	d="
M147.332565,288.666351 
	C149.168457,286.894348 151.314499,285.028778 153.813660,283.129456 
	C151.992081,284.921387 149.817398,286.747101 147.332565,288.666351 
z"/>
<path fill="#E2C44C" opacity="1.000000" stroke="none" 
	d="
M330.026917,87.648598 
	C328.385834,85.535637 326.699554,83.069557 325.010315,80.225342 
	C326.665497,82.329956 328.323578,84.812721 330.026917,87.648598 
z"/>
<path fill="#E2C44C" opacity="1.000000" stroke="none" 
	d="
M427.436646,188.180832 
	C429.548187,186.554810 432.010864,184.851242 434.838867,183.138489 
	C432.732086,184.787323 430.259949,186.445297 427.436646,188.180832 
z"/>
<path fill="#DFC045" opacity="1.000000" stroke="none" 
	d="
M280.741608,223.806931 
	C279.670746,226.196457 278.432556,228.841309 276.878815,231.640717 
	C277.900269,229.217606 279.237274,226.639923 280.741608,223.806931 
z"/>
<path fill="#E2C44C" opacity="1.000000" stroke="none" 
	d="
M248.387344,392.936340 
	C249.004547,390.283020 249.906647,387.404755 251.144409,384.366821 
	C250.544144,387.041931 249.608185,389.876648 248.387344,392.936340 
z"/>
<path fill="#DCBF49" opacity="1.000000" stroke="none" 
	d="
M333.047913,282.348267 
	C334.583710,283.141357 336.227234,284.248260 337.929016,285.705566 
	C336.376709,284.924683 334.766174,283.793365 333.047913,282.348267 
z"/>
<path fill="#DCBF49" opacity="1.000000" stroke="none" 
	d="
M332.721741,264.066711 
	C332.044281,266.165344 331.038879,268.424713 329.699127,270.861603 
	C330.374451,268.768555 331.384125,266.497986 332.721741,264.066711 
z"/>
<path fill="#E2C44C" opacity="1.000000" stroke="none" 
	d="
M231.118774,439.684143 
	C230.900513,439.967896 230.461960,439.973083 230.242950,439.973755 
	C230.944977,437.810394 231.866013,435.646362 233.103088,433.312256 
	C232.725098,435.228210 232.031052,437.314301 231.118774,439.684143 
z"/>
<path fill="#DCBF49" opacity="1.000000" stroke="none" 
	d="
M348.017212,294.369141 
	C349.550690,295.164032 351.218140,296.264343 352.936859,297.710602 
	C351.375793,296.929199 349.763489,295.801880 348.017212,294.369141 
z"/>
<path fill="#E2C44C" opacity="1.000000" stroke="none" 
	d="
M263.686066,267.122894 
	C263.351837,268.738342 262.730408,270.544647 261.752808,272.441101 
	C262.064026,270.792084 262.731415,269.052887 263.686066,267.122894 
z"/>
<path fill="#E2C44C" opacity="1.000000" stroke="none" 
	d="
M265.761963,261.034729 
	C265.435547,262.715118 264.951508,264.639191 264.198730,266.788483 
	C264.488129,265.101929 265.046234,263.190155 265.761963,261.034729 
z"/>
<path fill="#E2C44C" opacity="1.000000" stroke="none" 
	d="
M332.176880,92.292923 
	C331.388336,91.234360 330.701233,89.903488 330.021912,88.251526 
	C330.779266,89.293823 331.528809,90.657211 332.176880,92.292923 
z"/>
<path fill="#DCBF49" opacity="1.000000" stroke="none" 
	d="
M339.733887,287.737335 
	C340.875122,288.243988 342.162262,289.031586 343.462891,290.179169 
	C342.277527,289.698883 341.078644,288.858551 339.733887,287.737335 
z"/>
<path fill="#E2C44C" opacity="1.000000" stroke="none" 
	d="
M436.431091,182.106415 
	C436.924622,181.206787 437.718475,180.196701 438.865845,179.159668 
	C438.390076,180.087128 437.560760,181.041550 436.431091,182.106415 
z"/>
<path fill="#DCBF49" opacity="1.000000" stroke="none" 
	d="
M353.162292,298.265442 
	C354.199219,298.859497 355.462280,299.687408 356.853363,300.845276 
	C355.783752,300.283264 354.586090,299.391266 353.162292,298.265442 
z"/>
<path fill="#D8B948" opacity="1.000000" stroke="none" 
	d="
M154.415527,283.107574 
	C154.876907,282.167999 155.665405,281.169159 156.796310,280.120789 
	C156.340027,281.063599 155.541336,282.055969 154.415527,283.107574 
z"/>
<path fill="#DCBF49" opacity="1.000000" stroke="none" 
	d="
M344.685181,291.812622 
	C345.613983,292.183411 346.711273,292.817841 347.873352,293.787598 
	C346.909973,293.440704 345.881805,292.758453 344.685181,291.812622 
z"/>
<path fill="#DCBF49" opacity="1.000000" stroke="none" 
	d="
M351.353577,262.620178 
	C350.715179,262.361389 350.013214,261.826660 349.176208,261.046783 
	C349.790802,261.315826 350.540375,261.830017 351.353577,262.620178 
z"/>
<path fill="#DFC045" opacity="1.000000" stroke="none" 
	d="
M222.909485,456.383514 
	C223.073517,455.880219 223.471039,455.244385 224.190247,454.609650 
	C224.055618,455.157501 223.599289,455.704254 222.909485,456.383514 
z"/>
<path fill="#DFC045" opacity="1.000000" stroke="none" 
	d="
M220.834778,458.352661 
	C221.031906,457.866272 221.463211,457.242645 222.215912,456.637329 
	C222.047867,457.175568 221.558411,457.695496 220.834778,458.352661 
z"/>
<path fill="#DCBF49" opacity="1.000000" stroke="none" 
	d="
M338.069580,286.277222 
	C338.446808,286.312347 338.956055,286.604431 339.549377,287.192902 
	C339.156189,287.170898 338.678864,286.852570 338.069580,286.277222 
z"/>
<path fill="#DCBF49" opacity="1.000000" stroke="none" 
	d="
M335.095398,261.588623 
	C335.045624,261.931396 334.751770,262.406616 334.160767,262.948273 
	C334.192871,262.583527 334.522064,262.152313 335.095398,261.588623 
z"/>
<path fill="#DCBF49" opacity="1.000000" stroke="none" 
	d="
M349.064911,260.639984 
	C348.682983,260.606934 348.190857,260.319733 347.650452,259.733398 
	C348.053009,259.751465 348.503876,260.068634 349.064911,260.639984 
z"/>
<path fill="#D9C565" opacity="1.000000" stroke="none" 
	d="
M239.476410,227.367599 
	C239.475815,226.954712 239.721298,226.336395 240.289795,225.578186 
	C240.316025,226.012924 240.019257,226.587540 239.476410,227.367599 
z"/>
<path fill="#D8B948" opacity="1.000000" stroke="none" 
	d="
M152.303940,260.339508 
	C152.104538,260.427185 151.772552,260.258759 151.307434,259.839661 
	C151.506638,259.753815 151.838989,259.918610 152.303940,260.339508 
z"/>
<path fill="#E2C44C" opacity="1.000000" stroke="none" 
	d="
M439.373230,179.143127 
	C439.295105,178.932617 439.498199,178.629349 439.940369,178.185867 
	C440.004425,178.380554 439.829437,178.715469 439.373230,179.143127 
z"/>
<path fill="#E2C44C" opacity="1.000000" stroke="none" 
	d="
M435.351318,183.139923 
	C435.293915,182.930115 435.519440,182.633179 435.996460,182.204544 
	C436.043365,182.399506 435.838806,182.726166 435.351318,183.139923 
z"/>
<path fill="#D9C565" opacity="1.000000" stroke="none" 
	d="
M240.763245,225.310287 
	C240.676132,225.144653 240.794235,224.784042 241.142303,224.245392 
	C241.237656,224.416656 241.103043,224.765991 240.763245,225.310287 
z"/>
<path fill="#D9C565" opacity="1.000000" stroke="none" 
	d="
M238.398346,229.171387 
	C238.267685,228.933716 238.431488,228.596832 238.829590,228.096649 
	C238.940186,228.312958 238.816498,228.692551 238.398346,229.171387 
z"/>
<path fill="#D8B948" opacity="1.000000" stroke="none" 
	d="
M157.313965,280.059448 
	C157.229797,279.853851 157.409485,279.561188 157.811371,279.132568 
	C157.881638,279.321869 157.729736,279.647125 157.313965,280.059448 
z"/>
<path fill="#D8B948" opacity="1.000000" stroke="none" 
	d="
M153.319565,261.338196 
	C153.128510,261.398926 152.839142,261.228424 152.475922,260.807556 
	C152.675125,260.740417 152.948196,260.923676 153.319565,261.338196 
z"/>
<path fill="#DCBF49" opacity="1.000000" stroke="none" 
	d="
M336.041077,260.649658 
	C336.290527,260.895752 336.193848,261.123596 335.718384,261.286499 
	C335.543152,261.044556 335.661652,260.847809 336.041077,260.649658 
z"/>
<path fill="#D8B948" opacity="1.000000" stroke="none" 
	d="
M154.324173,262.396973 
	C154.117020,262.456360 153.831543,262.265747 153.477875,261.818542 
	C153.688385,261.756958 153.967117,261.951996 154.324173,262.396973 
z"/>
<path fill="#DCBF49" opacity="1.000000" stroke="none" 
	d="
M343.603394,290.796722 
	C343.894989,290.548157 344.174622,290.695435 344.408386,291.265472 
	C344.121857,291.465698 343.864868,291.300446 343.603394,290.796722 
z"/>
<path fill="#D8B948" opacity="1.000000" stroke="none" 
	d="
M155.313934,263.396484 
	C155.106949,263.464569 154.809189,263.280121 154.424500,262.839996 
	C154.632767,262.770874 154.927948,262.957428 155.313934,263.396484 
z"/>
<path fill="#050300" opacity="1.000000" stroke="none" 
	d="
M294.966431,115.860046 
	C296.304352,124.803886 291.698853,131.199158 285.056152,135.798157 
	C280.110107,139.222488 274.177124,138.787186 268.516113,134.741699 
	C267.787567,134.099182 267.437958,133.970108 267.088379,133.841019 
	C267.088379,133.841019 267.101318,133.915024 266.942291,133.682602 
	C266.307678,133.132294 265.832062,132.814407 265.356476,132.496521 
	C265.356476,132.496521 265.353210,132.627121 265.231689,132.321121 
	C259.373352,126.385818 258.027466,119.674744 260.202759,112.096146 
	C260.202759,112.096146 260.117676,112.115173 260.391296,111.952042 
	C261.201904,110.591278 261.738892,109.393654 262.275879,108.196030 
	C262.275879,108.196022 262.168365,108.178001 262.437622,108.133949 
	C262.848297,107.753532 262.989716,107.417168 263.131104,107.080803 
	C263.131104,107.080803 263.051941,107.081734 263.331116,106.943901 
	C264.117523,106.194221 264.624756,105.582382 265.131958,104.970535 
	C265.422180,104.958923 265.681549,104.863449 266.357971,104.366859 
	C272.522064,100.306038 278.603851,100.255791 284.888947,102.259575 
	C284.888947,102.259575 284.883453,102.157829 284.976440,102.457260 
	C286.041504,103.192917 287.013580,103.629150 287.985626,104.065384 
	C287.985626,104.065384 287.989105,104.003235 288.138611,104.278893 
	C289.175354,105.407448 290.062622,106.260345 290.949890,107.113243 
	C290.949890,107.113243 290.943542,107.040527 291.029785,107.339668 
	C291.709412,108.479813 292.302765,109.320816 292.896118,110.161827 
	C292.896118,110.161827 292.910736,110.080353 292.973267,110.423965 
	C293.679352,112.465073 294.322906,114.162560 294.966431,115.860046 
z"/>
<path fill="#E2C44C" opacity="1.000000" stroke="none" 
	d="
M259.822449,112.201157 
	C258.027466,119.674744 259.373352,126.385818 265.295898,132.309036 
	C263.362610,130.361450 259.976257,128.397842 259.410095,125.815834 
	C258.468445,121.521423 259.336304,116.830254 259.822449,112.201157 
z"/>
<path fill="#E2C44C" opacity="1.000000" stroke="none" 
	d="
M284.716492,101.902145 
	C278.603851,100.255791 272.522064,100.306038 266.454163,104.180183 
	C267.014954,103.250290 267.899078,101.306496 268.844788,101.276054 
	C274.069550,101.107918 279.309387,101.406258 284.716492,101.902145 
z"/>
<path fill="#E2C44C" opacity="1.000000" stroke="none" 
	d="
M294.990845,115.466484 
	C294.322906,114.162560 293.679352,112.465073 292.932068,110.419884 
	C293.557281,111.739098 294.286255,113.406013 294.990845,115.466484 
z"/>
<path fill="#E2C44C" opacity="1.000000" stroke="none" 
	d="
M261.910522,108.249680 
	C261.738892,109.393654 261.201904,110.591278 260.404907,111.993439 
	C260.611664,110.899765 261.078430,109.601547 261.910522,108.249680 
z"/>
<path fill="#E2C44C" opacity="1.000000" stroke="none" 
	d="
M287.897888,103.725327 
	C287.013580,103.629150 286.041504,103.192917 284.926147,102.465225 
	C285.791931,102.577599 286.801025,102.981430 287.897888,103.725327 
z"/>
<path fill="#E2C44C" opacity="1.000000" stroke="none" 
	d="
M290.917633,106.768784 
	C290.062622,106.260345 289.175354,105.407448 288.110107,104.291473 
	C288.916565,104.827042 289.900970,105.625687 290.917633,106.768784 
z"/>
<path fill="#E2C44C" opacity="1.000000" stroke="none" 
	d="
M292.920105,109.805847 
	C292.302765,109.320816 291.709412,108.479813 290.993652,107.344635 
	C291.562164,107.850258 292.253143,108.650055 292.920105,109.805847 
z"/>
<path fill="#E2C44C" opacity="1.000000" stroke="none" 
	d="
M264.813232,105.050186 
	C264.624756,105.582382 264.117523,106.194221 263.355530,106.975044 
	C263.565369,106.472626 264.029938,105.801231 264.813232,105.050186 
z"/>
<path fill="#E2C44C" opacity="1.000000" stroke="none" 
	d="
M265.458557,132.792206 
	C265.832062,132.814407 266.307678,133.132294 266.974854,133.663879 
	C266.631165,133.614334 266.095917,133.351105 265.458557,132.792206 
z"/>
<path fill="#E2C44C" opacity="1.000000" stroke="none" 
	d="
M267.247192,134.067902 
	C267.437958,133.970108 267.787567,134.099182 268.265411,134.485962 
	C268.064453,134.594025 267.735260,134.444397 267.247192,134.067902 
z"/>
<path fill="#E2C44C" opacity="1.000000" stroke="none" 
	d="
M262.903351,107.221008 
	C262.989716,107.417168 262.848297,107.753532 262.435120,108.188400 
	C262.334106,107.978340 262.504852,107.669777 262.903351,107.221008 
z"/>
<path fill="#CFAF46" opacity="1.000000" stroke="none" 
	d="
M150.869003,228.809570 
	C150.973068,228.898254 150.503281,228.915680 150.269485,228.901245 
	C150.245422,228.660110 150.488510,228.604797 150.869003,228.809570 
z"/>
</svg>